<svg width="48" height="54" viewBox="0 0 48 54" fill="none" xmlns="http://www.w3.org/2000/svg">
<path fill-rule="evenodd" clip-rule="evenodd" d="M31.4959 8.72532V16.5478C37.5567 19.7553 41.0021 26.4975 39.7943 33.4416C38.4437 41.2041 31.731 46.7767 23.8523 46.7062C15.9727 46.6358 9.35891 40.8996 8.14827 33.1142C7.07849 26.2348 10.5239 19.6049 16.5057 16.4584V8.75482C8.58608 11.4711 2.89931 18.1582 1.27751 26.0055C0.730631 28.6523 0.664007 31.4172 1.09906 34.2144C2.83935 45.4042 12.4688 53.7721 23.7928 53.8739C35.1159 53.9758 44.9019 45.7878 46.8425 34.6313C48.7832 23.4738 42.3074 12.4838 31.6144 8.75482C31.5744 8.74054 31.5368 8.73769 31.4959 8.72532Z" fill="#90CCED"/>
<path fill-rule="evenodd" clip-rule="evenodd" d="M24.0008 0.124512C26.0719 0.124512 27.7508 1.80344 27.7508 3.87451V28.3857C27.7508 30.4568 26.0719 32.1357 24.0008 32.1357C21.9298 32.1357 20.2508 30.4568 20.2508 28.3857V3.87451C20.2508 1.80344 21.9298 0.124512 24.0008 0.124512Z" fill="#90CCED"/>
</svg>
