<svg width="54" height="54" viewBox="0 0 54 54" fill="none" xmlns="http://www.w3.org/2000/svg">
<path fill-rule="evenodd" clip-rule="evenodd" d="M34.9228 2.64861L34.922 2.64936L30.92 6.65188C30.9223 6.59707 30.9234 6.54197 30.9234 6.4866C30.9234 4.32048 29.1664 2.56349 27.0003 2.56349H14.1796C10.4188 2.56349 6.81249 4.056 4.1525 6.71599C1.49251 9.37598 0 12.9823 0 16.7431V39.8204C0 43.5812 1.49251 47.1875 4.1525 49.8475C6.81249 52.5075 10.4188 54 14.1796 54H37.2569C41.0177 54 44.624 52.5075 47.284 49.8475C49.944 47.1875 51.4365 43.5812 51.4365 39.8204V26.9997C51.4365 24.8336 49.6795 23.0766 47.5134 23.0766C47.4578 23.0766 47.4025 23.0777 47.3475 23.08L51.3514 19.0772C54.8829 15.5424 54.8829 9.81296 51.3514 6.27818L51.3492 6.27597C50.181 5.11033 48.8897 3.81904 47.724 2.65082L47.7218 2.64862C44.187 -0.882872 38.4576 -0.882872 34.9228 2.64861ZM13.9706 23.6034L27.1661 10.4063C27.1111 10.4085 27.0559 10.4097 27.0003 10.4097H14.1796C12.4988 10.4097 10.888 11.0765 9.70263 12.2638L9.70032 12.2661C8.51304 13.4515 7.8462 15.0623 7.8462 16.7431V39.8204C7.8462 41.5012 8.51304 43.112 9.70031 44.2974L9.70264 44.2997C10.888 45.487 12.4988 46.1538 14.1796 46.1538H37.2569C38.9377 46.1538 40.5486 45.487 41.7339 44.2997L41.7362 44.2974C42.9235 43.112 43.5903 41.5012 43.5903 39.8204V26.9997C43.5903 26.9439 43.5915 26.8883 43.5938 26.8331L30.3966 40.0294C29.6619 40.7642 28.6667 41.1793 27.6234 41.1793H16.7438C14.5777 41.1793 12.8207 39.4223 12.8207 37.2562V26.3766C12.8207 25.3333 13.2359 24.3381 13.9706 23.6034ZM34.0696 14.5997L20.6669 28.0025V33.3331H25.9975L39.4003 19.9304L34.0696 14.5997ZM45.8018 13.5289L44.9493 14.3814L39.6186 9.05073L40.4711 8.19825C40.9414 7.728 41.7058 7.728 42.1761 8.19825L45.8018 11.8239C46.272 12.2942 46.272 13.0587 45.8018 13.5289Z" fill="#90CCED"/>
</svg>
